# File created by Blade
# Date/Time:  Wed Jan 21 15:15:22 2015
# Frame Rate: 120.000 fps
#------------------------------------------------------
:FULLY-SPECIFIED
:DEGREES
1115
root 19.098713 35.371592 -14.687661 189.360713 -75.999707 -183.593419
Spine -1.010150 20.047435 -19.902791
Head -16.953061 -22.586887 16.815233
LeftShoulder -6.684004 -27.674940 4.602021
LeftArm -16.382647 3.182571 -74.815849
LeftForeArm 4.150301 0.000000 12.327780
LeftHand -2.238535 -0.000000 0.475732
LeftHandThumb1 -26.253704 0.000000 33.147579
RightShoulder -1.189604 -7.812962 8.333902
RightArm 46.900126 -47.173677 47.820946
RightForeArm -40.417513 -0.000000 21.894463
RightHand 0.845587 0.000000 13.192745
RightHandThumb1 -24.326973 -0.000000 -32.862282
LeftUpLeg -13.335078 11.108193 -10.087771
LeftLeg 12.565462 -0.000000 -0.000000
LeftFoot -23.946271 24.652828 -10.229026
LeftToeBase 25.124489 -0.000000 -0.000000
RightUpLeg -10.749733 -24.255048 5.062560
RightLeg 47.237952 -0.000000 -0.000000
RightFoot -26.931967 -32.184088 18.712322
RightToeBase 2.392381 -0.000000 -0.000000
1116
root 19.050303 35.432282 -14.739271 187.817790 -76.327697 -181.999173
Spine -0.892407 19.197481 -19.267839
Head -16.439567 -22.059016 16.948709
LeftShoulder -6.369687 -27.786154 4.728979
LeftArm -16.359469 3.988061 -75.307757
LeftForeArm 4.120442 -0.000000 13.240505
LeftHand -2.314697 -0.000000 0.653275
LeftHandThumb1 -26.253704 0.000000 33.147579
RightShoulder -1.428377 -8.181195 8.566480
RightArm 45.102714 -45.644295 49.194340
RightForeArm -40.471374 -0.000000 21.106185
RightHand 0.685127 -0.000000 13.316306
RightHandThumb1 -24.326973 -0.000000 -32.862282
LeftUpLeg -12.874338 10.995177 -9.586219
LeftLeg 11.852352 -0.000000 -0.000000
LeftFoot -23.548089 24.583148 -10.117116
LeftToeBase 25.100414 -0.000000 -0.000000
RightUpLeg -11.191484 -24.664606 4.847085
RightLeg 46.928228 -0.000000 -0.000000
RightFoot -27.304769 -32.502262 18.876038
RightToeBase 2.870669 -0.000000 -0.000000
1117
root 18.998600 35.490407 -14.787388 186.204088 -76.593096 -180.342408
Spine -0.790660 18.402256 -18.626665
Head -15.929724 -21.547376 17.070034
LeftShoulder -6.093561 -27.805458 4.818187
LeftArm -16.169228 4.559151 -75.655317
LeftForeArm 4.342856 -0.000000 14.016577
LeftHand -2.390441 0.000000 0.614914
LeftHandThumb1 -26.253704 0.000000 33.147579
RightShoulder -1.668502 -8.367126 8.781325
RightArm 42.922120 -43.896880 50.958103
RightForeArm -40.705624 -0.000000 20.448669
RightHand 0.499436 -0.000000 13.181060
RightHandThumb1 -24.326973 -0.000000 -32.862282
LeftUpLeg -12.413525 11.055554 -9.115887
LeftLeg 11.153996 -0.000000 -0.000000
LeftFoot -23.188351 24.372311 -10.048086
LeftToeBase 25.089859 -0.000000 -0.000000
RightUpLeg -11.590636 -25.006563 4.607698
RightLeg 46.485198 -0.000000 -0.000000
RightFoot -27.600642 -32.877115 19.215950
RightToeBase 1.981405 -0.000000 -0.000000
1118
root 18.957209 35.544196 -14.823369 184.834092 -76.930514 -178.779967
Spine -0.860266 17.425418 -18.048229
Head -15.385183 -20.992578 17.205435
LeftShoulder -5.887675 -27.772569 4.944083
LeftArm -15.918377 4.998048 -75.938311
LeftForeArm 4.659536 0.000000 14.666424
LeftHand -2.377660 0.000000 0.606458
LeftHandThumb1 -26.253704 0.000000 33.147579
RightShoulder -1.920138 -8.597766 8.999233
RightArm 40.889182 -42.049222 52.449961
RightForeArm -40.748312 -0.000000 20.050547
RightHand 0.264283 -0.000000 12.898829
RightHandThumb1 -24.326973 -0.000000 -32.862282
LeftUpLeg -12.116577 10.808115 -8.692590
LeftLeg 10.439876 -0.000000 -0.000000
LeftFoot -22.821516 24.322795 -10.051693
LeftToeBase 24.496019 -0.000000 -0.000000
RightUpLeg -12.138295 -25.434992 4.380469
RightLeg 45.923805 -0.000000 -0.000000
RightFoot -28.296640 -33.090044 19.925509
RightToeBase 3.063315 -0.000000 -0.000000
1119
root 18.913154 35.596288 -14.878056 183.097450 -77.107103 -176.986309
Spine -0.807845 16.626105 -17.460284
Head -14.869008 -20.437147 17.399230
LeftShoulder -5.673084 -27.795388 5.099113
LeftArm -15.665959 5.318519 -76.122250
LeftForeArm 5.033615 -0.000000 15.335832
LeftHand -2.509917 0.000000 0.540541
LeftHandThumb1 -26.253704 0.000000 33.147579
RightShoulder -2.189910 -8.908602 9.281905
RightArm 39.273115 -40.125219 53.486134
RightForeArm -40.491657 -0.000000 19.772189
RightHand 0.058093 0.000000 12.500325
RightHandThumb1 -24.326973 -0.000000 -32.862282
LeftUpLeg -11.746999 11.117888 -8.248806
LeftLeg 9.831669 -0.000000 -0.000000
LeftFoot -22.482667 23.990614 -9.952278
LeftToeBase 24.394852 -0.000000 -0.000000
RightUpLeg -12.464050 -25.657825 4.155079
RightLeg 45.189606 -0.000000 -0.000000
RightFoot -28.656168 -33.553061 20.237578
RightToeBase 3.736134 -0.000000 -0.000000
1120
root 18.857659 35.642602 -14.924492 181.250030 -77.420075 -175.137531
Spine -0.656856 15.707455 -16.771567
Head -14.393533 -19.913449 17.498888
LeftShoulder -5.504674 -27.775592 5.158006
LeftArm -15.350272 5.933338 -76.274013
LeftForeArm 4.941100 -0.000000 15.821687
LeftHand -2.062383 -0.000000 0.581230
LeftHandThumb1 -26.253704 0.000000 33.147579
RightShoulder -2.506102 -9.151767 9.539773
RightArm 37.666277 -38.117653 54.438204
RightForeArm -40.085613 -0.000000 19.716061
RightHand -0.415194 -0.000000 12.170482
RightHandThumb1 -24.326973 -0.000000 -32.862282
LeftUpLeg -11.306531 11.174251 -7.785379
LeftLeg 9.239548 -0.000000 -0.000000
LeftFoot -22.200728 23.754520 -9.836168
LeftToeBase 24.493005 -0.000000 -0.000000
RightUpLeg -12.619643 -26.115048 3.846021
RightLeg 44.275184 -0.000000 -0.000000
RightFoot -28.797126 -33.982207 20.339617
RightToeBase 3.752577 -0.000000 -0.000000
